<?xml version="1.0" standalone="no"?><svg xmlns="http://www.w3.org/2000/svg" viewBox="0 0 1440 320"><path fill="#fb7906" fill-opacity="0.65" d="M0,32L16,42.7C32,53,64,75,96,80C128,85,160,75,192,64C224,53,256,43,288,42.7C320,43,352,53,384,48C416,43,448,21,480,64C512,107,544,213,576,218.7C608,224,640,128,672,90.7C704,53,736,75,768,101.3C800,128,832,160,864,197.3C896,235,928,277,960,250.7C992,224,1024,128,1056,112C1088,96,1120,160,1152,202.7C1184,245,1216,267,1248,245.3C1280,224,1312,160,1344,122.7C1376,85,1408,75,1424,69.3L1440,64L1440,320L1424,320C1408,320,1376,320,1344,320C1312,320,1280,320,1248,320C1216,320,1184,320,1152,320C1120,320,1088,320,1056,320C1024,320,992,320,960,320C928,320,896,320,864,320C832,320,800,320,768,320C736,320,704,320,672,320C640,320,608,320,576,320C544,320,512,320,480,320C448,320,416,320,384,320C352,320,320,320,288,320C256,320,224,320,192,320C160,320,128,320,96,320C64,320,32,320,16,320L0,320Z"></path></svg>