<?xml version="1.0" standalone="no"?><svg xmlns="http://www.w3.org/2000/svg" viewBox="0 0 1440 320"><path fill="#ff4169" fill-opacity="0.65" d="M0,224L20,202.7C40,181,80,139,120,122.7C160,107,200,117,240,122.7C280,128,320,128,360,128C400,128,440,128,480,128C520,128,560,128,600,144C640,160,680,192,720,197.3C760,203,800,181,840,181.3C880,181,920,203,960,208C1000,213,1040,203,1080,208C1120,213,1160,235,1200,213.3C1240,192,1280,128,1320,96C1360,64,1400,64,1420,64L1440,64L1440,320L1420,320C1400,320,1360,320,1320,320C1280,320,1240,320,1200,320C1160,320,1120,320,1080,320C1040,320,1000,320,960,320C920,320,880,320,840,320C800,320,760,320,720,320C680,320,640,320,600,320C560,320,520,320,480,320C440,320,400,320,360,320C320,320,280,320,240,320C200,320,160,320,120,320C80,320,40,320,20,320L0,320Z"></path></svg>