<?xml version="1.0" standalone="no"?><svg xmlns="http://www.w3.org/2000/svg" viewBox="0 0 1440 320"><path fill="#00b8d8" fill-opacity="0.65" d="M0,288L24,245.3C48,203,96,117,144,101.3C192,85,240,139,288,144C336,149,384,107,432,112C480,117,528,171,576,192C624,213,672,203,720,202.7C768,203,816,213,864,208C912,203,960,181,1008,181.3C1056,181,1104,203,1152,213.3C1200,224,1248,224,1296,192C1344,160,1392,96,1416,64L1440,32L1440,320L1416,320C1392,320,1344,320,1296,320C1248,320,1200,320,1152,320C1104,320,1056,320,1008,320C960,320,912,320,864,320C816,320,768,320,720,320C672,320,624,320,576,320C528,320,480,320,432,320C384,320,336,320,288,320C240,320,192,320,144,320C96,320,48,320,24,320L0,320Z"></path></svg>