<?xml version="1.0" standalone="no"?><svg xmlns="http://www.w3.org/2000/svg" viewBox="0 0 1440 320"><path fill="#ffb400" fill-opacity="0.65" d="M0,64L24,58.7C48,53,96,43,144,64C192,85,240,139,288,170.7C336,203,384,213,432,229.3C480,245,528,267,576,261.3C624,256,672,224,720,192C768,160,816,128,864,128C912,128,960,160,1008,144C1056,128,1104,64,1152,64C1200,64,1248,128,1296,154.7C1344,181,1392,171,1416,165.3L1440,160L1440,320L1416,320C1392,320,1344,320,1296,320C1248,320,1200,320,1152,320C1104,320,1056,320,1008,320C960,320,912,320,864,320C816,320,768,320,720,320C672,320,624,320,576,320C528,320,480,320,432,320C384,320,336,320,288,320C240,320,192,320,144,320C96,320,48,320,24,320L0,320Z"></path></svg>