<?xml version="1.0" standalone="no"?><svg xmlns="http://www.w3.org/2000/svg" viewBox="0 0 1440 320"><path fill="#00cba9" fill-opacity="0.65" d="M0,32L24,53.3C48,75,96,117,144,138.7C192,160,240,160,288,144C336,128,384,96,432,101.3C480,107,528,149,576,181.3C624,213,672,235,720,218.7C768,203,816,149,864,106.7C912,64,960,32,1008,48C1056,64,1104,128,1152,154.7C1200,181,1248,171,1296,160C1344,149,1392,139,1416,133.3L1440,128L1440,320L1416,320C1392,320,1344,320,1296,320C1248,320,1200,320,1152,320C1104,320,1056,320,1008,320C960,320,912,320,864,320C816,320,768,320,720,320C672,320,624,320,576,320C528,320,480,320,432,320C384,320,336,320,288,320C240,320,192,320,144,320C96,320,48,320,24,320L0,320Z"></path></svg>